<?xml version="1.0" encoding="iso-8859-1"?>
<!-- Uploaded to: SVG Repo, www.svgrepo.com, Generator: SVG Repo Mixer Tools -->
<svg fill="#000000" height="800px" width="800px" version="1.1" id="Layer_1" xmlns="http://www.w3.org/2000/svg" xmlns:xlink="http://www.w3.org/1999/xlink" 
	 viewBox="0 0 512 512" xml:space="preserve">
<g>
	<g>
		<g>
			<path d="M245.328,277.333c5.888,0,10.667-4.779,10.667-10.667v-85.333c0-5.888-4.779-10.667-10.667-10.667H210
				c-3.051,0-5.931,1.301-7.957,3.563c-2.027,2.261-2.987,5.291-2.645,8.32l9.728,85.333c0.597,5.376,5.163,9.451,10.603,9.451
				H245.328z"/>
			<path d="M95.995,106.667c29.44,0,53.333-23.872,53.333-53.333C149.328,23.872,125.435,0,95.995,0S42.662,23.872,42.662,53.333
				C42.662,82.795,66.534,106.667,95.995,106.667z"/>
			<path d="M177.616,179.819C174.246,150.272,150.864,128,123.238,128H68.752c-27.627,0-51.029,22.272-54.379,51.819L0.251,303.723
				c-1.195,10.368,2.005,20.651,8.768,28.224c5.803,6.528,13.547,10.304,21.909,10.773l11.776,159.403
				C43.11,507.691,47.76,512,53.35,512h85.333c5.589,0,10.219-4.309,10.645-9.877l11.776-159.403
				c8.363-0.469,16.085-4.267,21.909-10.773c6.741-7.552,9.941-17.856,8.768-28.224L177.616,179.819z"/>
			<path d="M458.662,277.333c5.888,0,10.667-4.779,10.667-10.667v-192c0-5.888-4.779-10.667-10.667-10.667h-64
				c-5.888,0-10.667,4.779-10.667,10.667v192c0,5.888,4.779,10.667,10.667,10.667H458.662z"/>
			<path d="M501.328,0H170.662c-5.888,0-10.667,4.779-10.667,10.667s4.779,10.667,10.667,10.667h320v277.333H223.995
				c-5.888,0-10.667,4.779-10.667,10.667S218.107,320,223.995,320h277.333c5.888,0,10.667-4.779,10.667-10.667V10.667
				C511.995,4.779,507.216,0,501.328,0z"/>
			<path d="M351.995,277.333c5.888,0,10.667-4.779,10.667-10.667V117.333c0-5.888-4.779-10.667-10.667-10.667h-64
				c-5.888,0-10.667,4.779-10.667,10.667v149.333c0,5.888,4.779,10.667,10.667,10.667H351.995z"/>
		</g>
	</g>
</g>
</svg>